<mxfile host="app.diagrams.net" agent="Mozilla/5.0 (Windows NT 10.0; Win64; x64) AppleWebKit/537.36 (KHTML, like Gecko) Chrome/126.0.0.0 Safari/537.36 OPR/112.0.0.0 (Edition std-2)" version="24.7.14">
  <diagram id="LhaOioyM41nmMYaBWcAa" name="Page-2">
    <mxGraphModel dx="2033" dy="1116" grid="1" gridSize="10" guides="1" tooltips="1" connect="1" arrows="1" fold="1" page="1" pageScale="1" pageWidth="850" pageHeight="1100" math="0" shadow="0">
      <root>
        <mxCell id="0" />
        <mxCell id="1" parent="0" />
        <mxCell id="jk6WdciDaXZc7I5ve3Ry-6" style="rounded=0;orthogonalLoop=1;jettySize=auto;html=1;exitX=0.237;exitY=1.038;exitDx=0;exitDy=0;exitPerimeter=0;entryX=0;entryY=0.5;entryDx=0;entryDy=0;endArrow=none;endFill=0;" parent="1" source="hBR_72GVZlkAtxKayIMy-10" target="jk6WdciDaXZc7I5ve3Ry-3" edge="1">
          <mxGeometry relative="1" as="geometry" />
        </mxCell>
        <mxCell id="jk6WdciDaXZc7I5ve3Ry-9" value="enthÃ¤lt" style="edgeLabel;html=1;align=center;verticalAlign=middle;resizable=0;points=[];" parent="jk6WdciDaXZc7I5ve3Ry-6" vertex="1" connectable="0">
          <mxGeometry x="-0.0943" y="-2" relative="1" as="geometry">
            <mxPoint as="offset" />
          </mxGeometry>
        </mxCell>
        <mxCell id="hBR_72GVZlkAtxKayIMy-4" value="&lt;b style=&quot;text-wrap: nowrap;&quot;&gt;QuizPool&lt;/b&gt;" style="swimlane;fontStyle=0;childLayout=stackLayout;horizontal=1;startSize=35;fillColor=none;horizontalStack=0;resizeParent=1;resizeParentMax=0;resizeLast=0;collapsible=1;marginBottom=0;whiteSpace=wrap;html=1;" parent="1" vertex="1">
          <mxGeometry x="30" y="116" width="190" height="165" as="geometry" />
        </mxCell>
        <mxCell id="hBR_72GVZlkAtxKayIMy-5" value="+&amp;nbsp;&lt;i style=&quot;text-align: center; text-wrap: nowrap;&quot;&gt;&amp;lt;&amp;lt;PK&amp;gt;&amp;gt; id&lt;/i&gt;: integer" style="text;strokeColor=none;fillColor=none;align=left;verticalAlign=top;spacingLeft=4;spacingRight=4;overflow=hidden;rotatable=0;points=[[0,0.5],[1,0.5]];portConstraint=eastwest;whiteSpace=wrap;html=1;" parent="hBR_72GVZlkAtxKayIMy-4" vertex="1">
          <mxGeometry y="35" width="190" height="26" as="geometry" />
        </mxCell>
        <mxCell id="hBR_72GVZlkAtxKayIMy-6" value="+ name: varchar(250)" style="text;strokeColor=none;fillColor=none;align=left;verticalAlign=top;spacingLeft=4;spacingRight=4;overflow=hidden;rotatable=0;points=[[0,0.5],[1,0.5]];portConstraint=eastwest;whiteSpace=wrap;html=1;" parent="hBR_72GVZlkAtxKayIMy-4" vertex="1">
          <mxGeometry y="61" width="190" height="26" as="geometry" />
        </mxCell>
        <mxCell id="hBR_72GVZlkAtxKayIMy-7" value="+&amp;nbsp;&lt;i style=&quot;text-align: center; text-wrap: nowrap;&quot;&gt;&amp;lt;&amp;lt;FK&amp;gt;&amp;gt;&amp;nbsp;&lt;/i&gt;creator_id: integer&lt;div&gt;&lt;br&gt;&lt;/div&gt;" style="text;strokeColor=none;fillColor=none;align=left;verticalAlign=top;spacingLeft=4;spacingRight=4;overflow=hidden;rotatable=0;points=[[0,0.5],[1,0.5]];portConstraint=eastwest;whiteSpace=wrap;html=1;" parent="hBR_72GVZlkAtxKayIMy-4" vertex="1">
          <mxGeometry y="87" width="190" height="26" as="geometry" />
        </mxCell>
        <mxCell id="hBR_72GVZlkAtxKayIMy-9" value="&lt;div&gt;+ created_date : datetime&lt;div&gt;&lt;br&gt;&lt;/div&gt;&lt;/div&gt;" style="text;strokeColor=none;fillColor=none;align=left;verticalAlign=top;spacingLeft=4;spacingRight=4;overflow=hidden;rotatable=0;points=[[0,0.5],[1,0.5]];portConstraint=eastwest;whiteSpace=wrap;html=1;" parent="hBR_72GVZlkAtxKayIMy-4" vertex="1">
          <mxGeometry y="113" width="190" height="26" as="geometry" />
        </mxCell>
        <mxCell id="hBR_72GVZlkAtxKayIMy-10" value="&lt;div&gt;&lt;div&gt;+ updated_date: datetime&lt;div&gt;&lt;br&gt;&lt;/div&gt;&lt;/div&gt;&lt;/div&gt;" style="text;strokeColor=none;fillColor=none;align=left;verticalAlign=top;spacingLeft=4;spacingRight=4;overflow=hidden;rotatable=0;points=[[0,0.5],[1,0.5]];portConstraint=eastwest;whiteSpace=wrap;html=1;" parent="hBR_72GVZlkAtxKayIMy-4" vertex="1">
          <mxGeometry y="139" width="190" height="26" as="geometry" />
        </mxCell>
        <mxCell id="hBR_72GVZlkAtxKayIMy-11" value="&lt;b style=&quot;text-wrap: nowrap;&quot;&gt;QuizTask&lt;/b&gt;" style="swimlane;fontStyle=0;childLayout=stackLayout;horizontal=1;startSize=35;fillColor=none;horizontalStack=0;resizeParent=1;resizeParentMax=0;resizeLast=0;collapsible=1;marginBottom=0;whiteSpace=wrap;html=1;" parent="1" vertex="1">
          <mxGeometry x="475" y="90" width="190" height="217" as="geometry" />
        </mxCell>
        <mxCell id="hBR_72GVZlkAtxKayIMy-12" value="+&amp;nbsp;&lt;i style=&quot;text-wrap: nowrap; text-align: center;&quot;&gt;&amp;lt;&amp;lt;PK&amp;gt;&amp;gt; id&lt;/i&gt;: integer" style="text;strokeColor=none;fillColor=none;align=left;verticalAlign=top;spacingLeft=4;spacingRight=4;overflow=hidden;rotatable=0;points=[[0,0.5],[1,0.5]];portConstraint=eastwest;whiteSpace=wrap;html=1;" parent="hBR_72GVZlkAtxKayIMy-11" vertex="1">
          <mxGeometry y="35" width="190" height="26" as="geometry" />
        </mxCell>
        <mxCell id="GLD0B4Fhkd1vlptPJzZt-3" value="+&amp;nbsp;&lt;i style=&quot;text-wrap: nowrap; text-align: center;&quot;&gt;&amp;lt;&amp;lt;FK&amp;gt;&amp;gt; pool_id&lt;/i&gt;: integer" style="text;strokeColor=none;fillColor=none;align=left;verticalAlign=top;spacingLeft=4;spacingRight=4;overflow=hidden;rotatable=0;points=[[0,0.5],[1,0.5]];portConstraint=eastwest;whiteSpace=wrap;html=1;" parent="hBR_72GVZlkAtxKayIMy-11" vertex="1">
          <mxGeometry y="61" width="190" height="26" as="geometry" />
        </mxCell>
        <mxCell id="hBR_72GVZlkAtxKayIMy-13" value="+ question: varchar(500)" style="text;strokeColor=none;fillColor=none;align=left;verticalAlign=top;spacingLeft=4;spacingRight=4;overflow=hidden;rotatable=0;points=[[0,0.5],[1,0.5]];portConstraint=eastwest;whiteSpace=wrap;html=1;" parent="hBR_72GVZlkAtxKayIMy-11" vertex="1">
          <mxGeometry y="87" width="190" height="26" as="geometry" />
        </mxCell>
        <mxCell id="hBR_72GVZlkAtxKayIMy-40" value="+ approved: bool" style="text;strokeColor=none;fillColor=none;align=left;verticalAlign=top;spacingLeft=4;spacingRight=4;overflow=hidden;rotatable=0;points=[[0,0.5],[1,0.5]];portConstraint=eastwest;whiteSpace=wrap;html=1;" parent="hBR_72GVZlkAtxKayIMy-11" vertex="1">
          <mxGeometry y="113" width="190" height="26" as="geometry" />
        </mxCell>
        <mxCell id="hBR_72GVZlkAtxKayIMy-14" value="+&amp;nbsp;&lt;i style=&quot;text-wrap: nowrap; text-align: center;&quot;&gt;&amp;lt;&amp;lt;FK&amp;gt;&amp;gt; creator_id&lt;/i&gt;: integer&lt;div&gt;&lt;br&gt;&lt;/div&gt;" style="text;strokeColor=none;fillColor=none;align=left;verticalAlign=top;spacingLeft=4;spacingRight=4;overflow=hidden;rotatable=0;points=[[0,0.5],[1,0.5]];portConstraint=eastwest;whiteSpace=wrap;html=1;" parent="hBR_72GVZlkAtxKayIMy-11" vertex="1">
          <mxGeometry y="139" width="190" height="26" as="geometry" />
        </mxCell>
        <mxCell id="hBR_72GVZlkAtxKayIMy-15" value="&lt;div&gt;&lt;div&gt;+ created_date : datetime&lt;div&gt;&lt;br&gt;&lt;/div&gt;&lt;/div&gt;&lt;/div&gt;" style="text;strokeColor=none;fillColor=none;align=left;verticalAlign=top;spacingLeft=4;spacingRight=4;overflow=hidden;rotatable=0;points=[[0,0.5],[1,0.5]];portConstraint=eastwest;whiteSpace=wrap;html=1;" parent="hBR_72GVZlkAtxKayIMy-11" vertex="1">
          <mxGeometry y="165" width="190" height="26" as="geometry" />
        </mxCell>
        <mxCell id="hBR_72GVZlkAtxKayIMy-16" value="&lt;div&gt;&lt;div&gt;&lt;div&gt;+ updated_date: datetime&lt;div&gt;&lt;br&gt;&lt;/div&gt;&lt;/div&gt;&lt;/div&gt;&lt;/div&gt;" style="text;strokeColor=none;fillColor=none;align=left;verticalAlign=top;spacingLeft=4;spacingRight=4;overflow=hidden;rotatable=0;points=[[0,0.5],[1,0.5]];portConstraint=eastwest;whiteSpace=wrap;html=1;" parent="hBR_72GVZlkAtxKayIMy-11" vertex="1">
          <mxGeometry y="191" width="190" height="26" as="geometry" />
        </mxCell>
        <mxCell id="hBR_72GVZlkAtxKayIMy-32" value="&lt;b style=&quot;text-wrap: nowrap;&quot;&gt;Answer&lt;/b&gt;" style="swimlane;fontStyle=0;childLayout=stackLayout;horizontal=1;startSize=35;fillColor=none;horizontalStack=0;resizeParent=1;resizeParentMax=0;resizeLast=0;collapsible=1;marginBottom=0;whiteSpace=wrap;html=1;" parent="1" vertex="1">
          <mxGeometry x="880" y="76.5" width="190" height="243" as="geometry" />
        </mxCell>
        <mxCell id="hBR_72GVZlkAtxKayIMy-33" value="+&amp;nbsp;&lt;i style=&quot;text-wrap: nowrap; text-align: center;&quot;&gt;&amp;lt;&amp;lt;PK&amp;gt;&amp;gt; id&lt;/i&gt;: integer" style="text;strokeColor=none;fillColor=none;align=left;verticalAlign=top;spacingLeft=4;spacingRight=4;overflow=hidden;rotatable=0;points=[[0,0.5],[1,0.5]];portConstraint=eastwest;whiteSpace=wrap;html=1;" parent="hBR_72GVZlkAtxKayIMy-32" vertex="1">
          <mxGeometry y="35" width="190" height="26" as="geometry" />
        </mxCell>
        <mxCell id="hBR_72GVZlkAtxKayIMy-41" value="+&amp;nbsp;&lt;i style=&quot;text-wrap: nowrap; text-align: center;&quot;&gt;&amp;lt;&amp;lt;FK&amp;gt;&amp;gt; task_id&lt;/i&gt;: integer" style="text;strokeColor=none;fillColor=none;align=left;verticalAlign=top;spacingLeft=4;spacingRight=4;overflow=hidden;rotatable=0;points=[[0,0.5],[1,0.5]];portConstraint=eastwest;whiteSpace=wrap;html=1;" parent="hBR_72GVZlkAtxKayIMy-32" vertex="1">
          <mxGeometry y="61" width="190" height="26" as="geometry" />
        </mxCell>
        <mxCell id="hBR_72GVZlkAtxKayIMy-34" value="+ answer: varchar(500)" style="text;strokeColor=none;fillColor=none;align=left;verticalAlign=top;spacingLeft=4;spacingRight=4;overflow=hidden;rotatable=0;points=[[0,0.5],[1,0.5]];portConstraint=eastwest;whiteSpace=wrap;html=1;" parent="hBR_72GVZlkAtxKayIMy-32" vertex="1">
          <mxGeometry y="87" width="190" height="26" as="geometry" />
        </mxCell>
        <mxCell id="3NkdcdpzAsxqrtIeompV-1" value="+ correct: bool" style="text;strokeColor=none;fillColor=none;align=left;verticalAlign=top;spacingLeft=4;spacingRight=4;overflow=hidden;rotatable=0;points=[[0,0.5],[1,0.5]];portConstraint=eastwest;whiteSpace=wrap;html=1;" parent="hBR_72GVZlkAtxKayIMy-32" vertex="1">
          <mxGeometry y="113" width="190" height="26" as="geometry" />
        </mxCell>
        <mxCell id="hBR_72GVZlkAtxKayIMy-39" value="+ explanation: varchar(500)" style="text;strokeColor=none;fillColor=none;align=left;verticalAlign=top;spacingLeft=4;spacingRight=4;overflow=hidden;rotatable=0;points=[[0,0.5],[1,0.5]];portConstraint=eastwest;whiteSpace=wrap;html=1;" parent="hBR_72GVZlkAtxKayIMy-32" vertex="1">
          <mxGeometry y="139" width="190" height="26" as="geometry" />
        </mxCell>
        <mxCell id="hBR_72GVZlkAtxKayIMy-35" value="+&amp;nbsp;&lt;i style=&quot;text-wrap: nowrap; text-align: center;&quot;&gt;&amp;lt;&amp;lt;FK&amp;gt;&amp;gt; c&lt;/i&gt;reator_id: integer&lt;div&gt;&lt;br&gt;&lt;/div&gt;" style="text;strokeColor=none;fillColor=none;align=left;verticalAlign=top;spacingLeft=4;spacingRight=4;overflow=hidden;rotatable=0;points=[[0,0.5],[1,0.5]];portConstraint=eastwest;whiteSpace=wrap;html=1;" parent="hBR_72GVZlkAtxKayIMy-32" vertex="1">
          <mxGeometry y="165" width="190" height="26" as="geometry" />
        </mxCell>
        <mxCell id="hBR_72GVZlkAtxKayIMy-36" value="&lt;div&gt;&lt;div&gt;+ created_date : datetime&lt;div&gt;&lt;br&gt;&lt;/div&gt;&lt;/div&gt;&lt;/div&gt;" style="text;strokeColor=none;fillColor=none;align=left;verticalAlign=top;spacingLeft=4;spacingRight=4;overflow=hidden;rotatable=0;points=[[0,0.5],[1,0.5]];portConstraint=eastwest;whiteSpace=wrap;html=1;" parent="hBR_72GVZlkAtxKayIMy-32" vertex="1">
          <mxGeometry y="191" width="190" height="26" as="geometry" />
        </mxCell>
        <mxCell id="hBR_72GVZlkAtxKayIMy-37" value="&lt;div&gt;&lt;div&gt;&lt;div&gt;+ updated_date: datetime&lt;div&gt;&lt;br&gt;&lt;/div&gt;&lt;/div&gt;&lt;/div&gt;&lt;/div&gt;" style="text;strokeColor=none;fillColor=none;align=left;verticalAlign=top;spacingLeft=4;spacingRight=4;overflow=hidden;rotatable=0;points=[[0,0.5],[1,0.5]];portConstraint=eastwest;whiteSpace=wrap;html=1;" parent="hBR_72GVZlkAtxKayIMy-32" vertex="1">
          <mxGeometry y="217" width="190" height="26" as="geometry" />
        </mxCell>
        <mxCell id="hBR_72GVZlkAtxKayIMy-42" value="&lt;b style=&quot;text-wrap: nowrap;&quot;&gt;built-in: auth_user&lt;/b&gt;" style="swimlane;fontStyle=0;childLayout=stackLayout;horizontal=1;startSize=35;fillColor=none;horizontalStack=0;resizeParent=1;resizeParentMax=0;resizeLast=0;collapsible=1;marginBottom=0;whiteSpace=wrap;html=1;" parent="1" vertex="1">
          <mxGeometry x="375" y="560" width="180" height="87" as="geometry" />
        </mxCell>
        <mxCell id="hBR_72GVZlkAtxKayIMy-43" value="+ id: integer" style="text;strokeColor=none;fillColor=none;align=left;verticalAlign=top;spacingLeft=4;spacingRight=4;overflow=hidden;rotatable=0;points=[[0,0.5],[1,0.5]];portConstraint=eastwest;whiteSpace=wrap;html=1;" parent="hBR_72GVZlkAtxKayIMy-42" vertex="1">
          <mxGeometry y="35" width="180" height="26" as="geometry" />
        </mxCell>
        <mxCell id="hBR_72GVZlkAtxKayIMy-49" value="&lt;div&gt;&lt;div&gt;+ ...&lt;div&gt;&lt;br&gt;&lt;/div&gt;&lt;/div&gt;&lt;/div&gt;" style="text;strokeColor=none;fillColor=none;align=left;verticalAlign=top;spacingLeft=4;spacingRight=4;overflow=hidden;rotatable=0;points=[[0,0.5],[1,0.5]];portConstraint=eastwest;whiteSpace=wrap;html=1;" parent="hBR_72GVZlkAtxKayIMy-42" vertex="1">
          <mxGeometry y="61" width="180" height="26" as="geometry" />
        </mxCell>
        <mxCell id="jOK8pmaJKk_sTLgAj7we-11" value="&lt;font style=&quot;font-size: 11px;&quot;&gt;1&lt;/font&gt;" style="text;html=1;align=center;verticalAlign=middle;resizable=0;points=[];autosize=1;strokeColor=none;fillColor=none;container=0;" parent="1" vertex="1">
          <mxGeometry x="210" y="195" width="30" height="30" as="geometry" />
        </mxCell>
        <mxCell id="jOK8pmaJKk_sTLgAj7we-16" value="" style="endArrow=none;html=1;rounded=0;endFill=0;" parent="1" source="hBR_72GVZlkAtxKayIMy-11" target="hBR_72GVZlkAtxKayIMy-32" edge="1">
          <mxGeometry relative="1" as="geometry">
            <mxPoint x="690" y="350" as="sourcePoint" />
            <mxPoint x="850" y="350" as="targetPoint" />
          </mxGeometry>
        </mxCell>
        <mxCell id="jOK8pmaJKk_sTLgAj7we-17" value="contains" style="edgeLabel;resizable=0;html=1;;align=center;verticalAlign=middle;" parent="jOK8pmaJKk_sTLgAj7we-16" connectable="0" vertex="1">
          <mxGeometry relative="1" as="geometry">
            <mxPoint x="5" as="offset" />
          </mxGeometry>
        </mxCell>
        <mxCell id="jOK8pmaJKk_sTLgAj7we-20" value="&lt;font style=&quot;font-size: 11px;&quot;&gt;1&lt;/font&gt;" style="text;html=1;align=center;verticalAlign=middle;resizable=0;points=[];autosize=1;strokeColor=none;fillColor=none;container=0;" parent="1" vertex="1">
          <mxGeometry x="665" y="195" width="30" height="30" as="geometry" />
        </mxCell>
        <mxCell id="jOK8pmaJKk_sTLgAj7we-21" value="&lt;font style=&quot;font-size: 11px;&quot;&gt;n&lt;/font&gt;" style="text;html=1;align=center;verticalAlign=middle;resizable=0;points=[];autosize=1;strokeColor=none;fillColor=none;container=0;" parent="1" vertex="1">
          <mxGeometry x="850" y="195" width="30" height="30" as="geometry" />
        </mxCell>
        <mxCell id="jOK8pmaJKk_sTLgAj7we-23" value="" style="endArrow=none;html=1;rounded=0;entryX=0;entryY=0;entryDx=0;entryDy=0;endFill=0;exitX=0.6;exitY=1.192;exitDx=0;exitDy=0;exitPerimeter=0;" parent="1" source="hBR_72GVZlkAtxKayIMy-10" target="hBR_72GVZlkAtxKayIMy-42" edge="1">
          <mxGeometry relative="1" as="geometry">
            <mxPoint x="120" y="290" as="sourcePoint" />
            <mxPoint x="280" y="370" as="targetPoint" />
          </mxGeometry>
        </mxCell>
        <mxCell id="jOK8pmaJKk_sTLgAj7we-24" value="creates" style="edgeLabel;resizable=0;html=1;;align=center;verticalAlign=middle;" parent="jOK8pmaJKk_sTLgAj7we-23" connectable="0" vertex="1">
          <mxGeometry relative="1" as="geometry" />
        </mxCell>
        <mxCell id="jOK8pmaJKk_sTLgAj7we-25" value="creator_id" style="edgeLabel;resizable=0;html=1;;align=left;verticalAlign=bottom;" parent="jOK8pmaJKk_sTLgAj7we-23" connectable="0" vertex="1">
          <mxGeometry x="-1" relative="1" as="geometry">
            <mxPoint x="17" y="20" as="offset" />
          </mxGeometry>
        </mxCell>
        <mxCell id="jOK8pmaJKk_sTLgAj7we-26" value="id" style="edgeLabel;resizable=0;html=1;;align=right;verticalAlign=bottom;" parent="jOK8pmaJKk_sTLgAj7we-23" connectable="0" vertex="1">
          <mxGeometry x="1" relative="1" as="geometry">
            <mxPoint x="10" y="-10" as="offset" />
          </mxGeometry>
        </mxCell>
        <mxCell id="jOK8pmaJKk_sTLgAj7we-27" value="" style="endArrow=none;html=1;rounded=0;entryX=0.5;entryY=0;entryDx=0;entryDy=0;endFill=0;exitX=0.137;exitY=1.06;exitDx=0;exitDy=0;exitPerimeter=0;" parent="1" source="hBR_72GVZlkAtxKayIMy-16" target="hBR_72GVZlkAtxKayIMy-42" edge="1">
          <mxGeometry relative="1" as="geometry">
            <mxPoint x="130" y="300" as="sourcePoint" />
            <mxPoint x="490" y="540" as="targetPoint" />
          </mxGeometry>
        </mxCell>
        <mxCell id="jOK8pmaJKk_sTLgAj7we-28" value="creates" style="edgeLabel;resizable=0;html=1;;align=center;verticalAlign=middle;" parent="jOK8pmaJKk_sTLgAj7we-27" connectable="0" vertex="1">
          <mxGeometry relative="1" as="geometry" />
        </mxCell>
        <mxCell id="jOK8pmaJKk_sTLgAj7we-29" value="creator_id" style="edgeLabel;resizable=0;html=1;;align=left;verticalAlign=bottom;" parent="jOK8pmaJKk_sTLgAj7we-27" connectable="0" vertex="1">
          <mxGeometry x="-1" relative="1" as="geometry">
            <mxPoint x="5" y="20" as="offset" />
          </mxGeometry>
        </mxCell>
        <mxCell id="jOK8pmaJKk_sTLgAj7we-30" value="id" style="edgeLabel;resizable=0;html=1;;align=right;verticalAlign=bottom;" parent="jOK8pmaJKk_sTLgAj7we-27" connectable="0" vertex="1">
          <mxGeometry x="1" relative="1" as="geometry">
            <mxPoint x="25" y="-7" as="offset" />
          </mxGeometry>
        </mxCell>
        <mxCell id="jOK8pmaJKk_sTLgAj7we-31" value="" style="endArrow=none;html=1;rounded=0;entryX=1;entryY=0;entryDx=0;entryDy=0;endFill=0;exitX=0.053;exitY=0.981;exitDx=0;exitDy=0;exitPerimeter=0;" parent="1" source="hBR_72GVZlkAtxKayIMy-37" target="hBR_72GVZlkAtxKayIMy-42" edge="1">
          <mxGeometry relative="1" as="geometry">
            <mxPoint x="950" y="310" as="sourcePoint" />
            <mxPoint x="580" y="540" as="targetPoint" />
          </mxGeometry>
        </mxCell>
        <mxCell id="jOK8pmaJKk_sTLgAj7we-32" value="creates" style="edgeLabel;resizable=0;html=1;;align=center;verticalAlign=middle;" parent="jOK8pmaJKk_sTLgAj7we-31" connectable="0" vertex="1">
          <mxGeometry relative="1" as="geometry">
            <mxPoint x="17" y="-9" as="offset" />
          </mxGeometry>
        </mxCell>
        <mxCell id="jOK8pmaJKk_sTLgAj7we-33" value="creator_id" style="edgeLabel;resizable=0;html=1;;align=left;verticalAlign=bottom;" parent="jOK8pmaJKk_sTLgAj7we-31" connectable="0" vertex="1">
          <mxGeometry x="-1" relative="1" as="geometry">
            <mxPoint x="-7" y="25" as="offset" />
          </mxGeometry>
        </mxCell>
        <mxCell id="jOK8pmaJKk_sTLgAj7we-34" value="id" style="edgeLabel;resizable=0;html=1;;align=right;verticalAlign=bottom;" parent="jOK8pmaJKk_sTLgAj7we-31" connectable="0" vertex="1">
          <mxGeometry x="1" relative="1" as="geometry">
            <mxPoint x="30" y="10" as="offset" />
          </mxGeometry>
        </mxCell>
        <mxCell id="jOK8pmaJKk_sTLgAj7we-35" value="&lt;font style=&quot;font-size: 11px;&quot;&gt;1&lt;/font&gt;" style="text;html=1;align=center;verticalAlign=middle;resizable=0;points=[];autosize=1;strokeColor=none;fillColor=none;container=0;" parent="1" vertex="1">
          <mxGeometry x="440" y="530" width="30" height="30" as="geometry" />
        </mxCell>
        <mxCell id="jOK8pmaJKk_sTLgAj7we-36" value="&lt;font style=&quot;font-size: 11px;&quot;&gt;1&lt;/font&gt;" style="text;html=1;align=center;verticalAlign=middle;resizable=0;points=[];autosize=1;strokeColor=none;fillColor=none;container=0;" parent="1" vertex="1">
          <mxGeometry x="535" y="530" width="30" height="30" as="geometry" />
        </mxCell>
        <mxCell id="jOK8pmaJKk_sTLgAj7we-37" value="&lt;font style=&quot;font-size: 11px;&quot;&gt;1&lt;/font&gt;" style="text;html=1;align=center;verticalAlign=middle;resizable=0;points=[];autosize=1;strokeColor=none;fillColor=none;container=0;" parent="1" vertex="1">
          <mxGeometry x="345" y="550" width="30" height="30" as="geometry" />
        </mxCell>
        <mxCell id="jOK8pmaJKk_sTLgAj7we-38" value="&lt;font style=&quot;font-size: 11px;&quot;&gt;n&lt;/font&gt;" style="text;html=1;align=center;verticalAlign=middle;resizable=0;points=[];autosize=1;strokeColor=none;fillColor=none;container=0;" parent="1" vertex="1">
          <mxGeometry x="850" y="310" width="30" height="30" as="geometry" />
        </mxCell>
        <mxCell id="jOK8pmaJKk_sTLgAj7we-40" value="&lt;font style=&quot;font-size: 11px;&quot;&gt;n&lt;/font&gt;" style="text;html=1;align=center;verticalAlign=middle;resizable=0;points=[];autosize=1;strokeColor=none;fillColor=none;container=0;" parent="1" vertex="1">
          <mxGeometry x="445" y="200" width="30" height="30" as="geometry" />
        </mxCell>
        <mxCell id="jOK8pmaJKk_sTLgAj7we-41" value="&lt;font style=&quot;font-size: 11px;&quot;&gt;n&lt;/font&gt;" style="text;html=1;align=center;verticalAlign=middle;resizable=0;points=[];autosize=1;strokeColor=none;fillColor=none;container=0;" parent="1" vertex="1">
          <mxGeometry x="120" y="281" width="30" height="30" as="geometry" />
        </mxCell>
        <mxCell id="GLD0B4Fhkd1vlptPJzZt-1" value="" style="endArrow=none;html=1;rounded=0;endFill=0;" parent="1" source="hBR_72GVZlkAtxKayIMy-4" target="hBR_72GVZlkAtxKayIMy-11" edge="1">
          <mxGeometry relative="1" as="geometry">
            <mxPoint x="235" y="191" as="sourcePoint" />
            <mxPoint x="450" y="191" as="targetPoint" />
          </mxGeometry>
        </mxCell>
        <mxCell id="GLD0B4Fhkd1vlptPJzZt-2" value="contains" style="edgeLabel;resizable=0;html=1;;align=center;verticalAlign=middle;" parent="GLD0B4Fhkd1vlptPJzZt-1" connectable="0" vertex="1">
          <mxGeometry relative="1" as="geometry">
            <mxPoint x="5" as="offset" />
          </mxGeometry>
        </mxCell>
        <mxCell id="GLD0B4Fhkd1vlptPJzZt-4" value="&lt;font style=&quot;font-size: 11px;&quot;&gt;n&lt;/font&gt;" style="text;html=1;align=center;verticalAlign=middle;resizable=0;points=[];autosize=1;strokeColor=none;fillColor=none;container=0;" parent="1" vertex="1">
          <mxGeometry x="475" y="307" width="30" height="30" as="geometry" />
        </mxCell>
        <mxCell id="1oF_mmt88_rr4n1S5vzL-1" value="&lt;span style=&quot;text-wrap: nowrap;&quot;&gt;&lt;b&gt;SPGame / MPGame&lt;/b&gt;&lt;/span&gt;" style="swimlane;fontStyle=0;childLayout=stackLayout;horizontal=1;startSize=35;fillColor=none;horizontalStack=0;resizeParent=1;resizeParentMax=0;resizeLast=0;collapsible=1;marginBottom=0;whiteSpace=wrap;html=1;" parent="1" vertex="1">
          <mxGeometry x="375" y="810" width="190" height="243" as="geometry" />
        </mxCell>
        <mxCell id="1oF_mmt88_rr4n1S5vzL-2" value="+&amp;nbsp;&lt;i style=&quot;text-wrap: nowrap; text-align: center;&quot;&gt;&amp;lt;&amp;lt;PK&amp;gt;&amp;gt; id&lt;/i&gt;: integer" style="text;strokeColor=none;fillColor=none;align=left;verticalAlign=top;spacingLeft=4;spacingRight=4;overflow=hidden;rotatable=0;points=[[0,0.5],[1,0.5]];portConstraint=eastwest;whiteSpace=wrap;html=1;" parent="1oF_mmt88_rr4n1S5vzL-1" vertex="1">
          <mxGeometry y="35" width="190" height="26" as="geometry" />
        </mxCell>
        <mxCell id="1oF_mmt88_rr4n1S5vzL-3" value="+&amp;nbsp;&lt;i style=&quot;text-wrap: nowrap; text-align: center;&quot;&gt;&amp;lt;&amp;lt;FK&amp;gt;&amp;gt; user_id&lt;/i&gt;: integer" style="text;strokeColor=none;fillColor=none;align=left;verticalAlign=top;spacingLeft=4;spacingRight=4;overflow=hidden;rotatable=0;points=[[0,0.5],[1,0.5]];portConstraint=eastwest;whiteSpace=wrap;html=1;" parent="1oF_mmt88_rr4n1S5vzL-1" vertex="1">
          <mxGeometry y="61" width="190" height="26" as="geometry" />
        </mxCell>
        <mxCell id="jk6WdciDaXZc7I5ve3Ry-1" value="+&amp;nbsp;&lt;i style=&quot;text-wrap: nowrap; text-align: center;&quot;&gt;&amp;lt;&amp;lt;FK&amp;gt;&amp;gt; pool_id&lt;/i&gt;: integer" style="text;strokeColor=none;fillColor=none;align=left;verticalAlign=top;spacingLeft=4;spacingRight=4;overflow=hidden;rotatable=0;points=[[0,0.5],[1,0.5]];portConstraint=eastwest;whiteSpace=wrap;html=1;" parent="1oF_mmt88_rr4n1S5vzL-1" vertex="1">
          <mxGeometry y="87" width="190" height="26" as="geometry" />
        </mxCell>
        <mxCell id="jk6WdciDaXZc7I5ve3Ry-3" value="+ created_date : datetime&lt;div&gt;&lt;br&gt;&lt;/div&gt;" style="text;strokeColor=none;fillColor=none;align=left;verticalAlign=top;spacingLeft=4;spacingRight=4;overflow=hidden;rotatable=0;points=[[0,0.5],[1,0.5]];portConstraint=eastwest;whiteSpace=wrap;html=1;" parent="1oF_mmt88_rr4n1S5vzL-1" vertex="1">
          <mxGeometry y="113" width="190" height="26" as="geometry" />
        </mxCell>
        <mxCell id="1oF_mmt88_rr4n1S5vzL-4" value="+ name: varchar(350)" style="text;strokeColor=none;fillColor=none;align=left;verticalAlign=top;spacingLeft=4;spacingRight=4;overflow=hidden;rotatable=0;points=[[0,0.5],[1,0.5]];portConstraint=eastwest;whiteSpace=wrap;html=1;" parent="1oF_mmt88_rr4n1S5vzL-1" vertex="1">
          <mxGeometry y="139" width="190" height="26" as="geometry" />
        </mxCell>
        <mxCell id="jk6WdciDaXZc7I5ve3Ry-2" value="+ completet: bool" style="text;strokeColor=none;fillColor=none;align=left;verticalAlign=top;spacingLeft=4;spacingRight=4;overflow=hidden;rotatable=0;points=[[0,0.5],[1,0.5]];portConstraint=eastwest;whiteSpace=wrap;html=1;" parent="1oF_mmt88_rr4n1S5vzL-1" vertex="1">
          <mxGeometry y="165" width="190" height="26" as="geometry" />
        </mxCell>
        <mxCell id="1oF_mmt88_rr4n1S5vzL-8" value="&lt;div&gt;+ completed_at : datetime&lt;div&gt;&lt;br&gt;&lt;/div&gt;&lt;/div&gt;" style="text;strokeColor=none;fillColor=none;align=left;verticalAlign=top;spacingLeft=4;spacingRight=4;overflow=hidden;rotatable=0;points=[[0,0.5],[1,0.5]];portConstraint=eastwest;whiteSpace=wrap;html=1;" parent="1oF_mmt88_rr4n1S5vzL-1" vertex="1">
          <mxGeometry y="191" width="190" height="26" as="geometry" />
        </mxCell>
        <mxCell id="jk6WdciDaXZc7I5ve3Ry-4" value="&lt;div&gt;&lt;div&gt;+ correct_percent: real&lt;br&gt;&lt;/div&gt;&lt;/div&gt;" style="text;strokeColor=none;fillColor=none;align=left;verticalAlign=top;spacingLeft=4;spacingRight=4;overflow=hidden;rotatable=0;points=[[0,0.5],[1,0.5]];portConstraint=eastwest;whiteSpace=wrap;html=1;" parent="1oF_mmt88_rr4n1S5vzL-1" vertex="1">
          <mxGeometry y="217" width="190" height="26" as="geometry" />
        </mxCell>
        <mxCell id="1oF_mmt88_rr4n1S5vzL-13" value="&lt;span style=&quot;text-wrap: nowrap;&quot;&gt;&lt;b&gt;SPGame-&lt;/b&gt;&lt;/span&gt;&lt;b style=&quot;text-wrap: nowrap;&quot;&gt;contains-Quiztask /&lt;/b&gt;&lt;div&gt;&lt;b style=&quot;text-wrap: nowrap;&quot;&gt;MPGame.contains-Quiztask&lt;/b&gt;&lt;/div&gt;" style="swimlane;fontStyle=0;childLayout=stackLayout;horizontal=1;startSize=35;fillColor=none;horizontalStack=0;resizeParent=1;resizeParentMax=0;resizeLast=0;collapsible=1;marginBottom=0;whiteSpace=wrap;html=1;" parent="1" vertex="1">
          <mxGeometry x="720" y="836" width="190" height="191" as="geometry" />
        </mxCell>
        <mxCell id="1oF_mmt88_rr4n1S5vzL-14" value="+&amp;nbsp;&lt;i style=&quot;text-wrap: nowrap; text-align: center;&quot;&gt;&amp;lt;&amp;lt;PK&amp;gt;&amp;gt; id&lt;/i&gt;: integer" style="text;strokeColor=none;fillColor=none;align=left;verticalAlign=top;spacingLeft=4;spacingRight=4;overflow=hidden;rotatable=0;points=[[0,0.5],[1,0.5]];portConstraint=eastwest;whiteSpace=wrap;html=1;" parent="1oF_mmt88_rr4n1S5vzL-13" vertex="1">
          <mxGeometry y="35" width="190" height="26" as="geometry" />
        </mxCell>
        <mxCell id="1oF_mmt88_rr4n1S5vzL-15" value="+&amp;nbsp;&lt;i style=&quot;text-wrap: nowrap; text-align: center;&quot;&gt;&amp;lt;&amp;lt;FK&amp;gt;&amp;gt; game_id&lt;/i&gt;: integer" style="text;strokeColor=none;fillColor=none;align=left;verticalAlign=top;spacingLeft=4;spacingRight=4;overflow=hidden;rotatable=0;points=[[0,0.5],[1,0.5]];portConstraint=eastwest;whiteSpace=wrap;html=1;" parent="1oF_mmt88_rr4n1S5vzL-13" vertex="1">
          <mxGeometry y="61" width="190" height="26" as="geometry" />
        </mxCell>
        <mxCell id="1oF_mmt88_rr4n1S5vzL-16" value="+&amp;nbsp;&lt;i style=&quot;text-wrap: nowrap; text-align: center;&quot;&gt;&amp;lt;&amp;lt;FK&amp;gt;&amp;gt; task_id&lt;/i&gt;: integer" style="text;strokeColor=none;fillColor=none;align=left;verticalAlign=top;spacingLeft=4;spacingRight=4;overflow=hidden;rotatable=0;points=[[0,0.5],[1,0.5]];portConstraint=eastwest;whiteSpace=wrap;html=1;" parent="1oF_mmt88_rr4n1S5vzL-13" vertex="1">
          <mxGeometry y="87" width="190" height="26" as="geometry" />
        </mxCell>
        <mxCell id="6vXvPe16ZzYtxvqnHftn-1" value="+&amp;nbsp;&lt;i style=&quot;text-wrap: nowrap; text-align: center;&quot;&gt;selected_answer_ID&lt;/i&gt;: integer" style="text;strokeColor=none;fillColor=none;align=left;verticalAlign=top;spacingLeft=4;spacingRight=4;overflow=hidden;rotatable=0;points=[[0,0.5],[1,0.5]];portConstraint=eastwest;whiteSpace=wrap;html=1;" parent="1oF_mmt88_rr4n1S5vzL-13" vertex="1">
          <mxGeometry y="113" width="190" height="26" as="geometry" />
        </mxCell>
        <mxCell id="1oF_mmt88_rr4n1S5vzL-17" value="+ correct_answered: bool" style="text;strokeColor=none;fillColor=none;align=left;verticalAlign=top;spacingLeft=4;spacingRight=4;overflow=hidden;rotatable=0;points=[[0,0.5],[1,0.5]];portConstraint=eastwest;whiteSpace=wrap;html=1;" parent="1oF_mmt88_rr4n1S5vzL-13" vertex="1">
          <mxGeometry y="139" width="190" height="26" as="geometry" />
        </mxCell>
        <mxCell id="1oF_mmt88_rr4n1S5vzL-20" value="&lt;div&gt;+ completed : bool&lt;div&gt;&lt;br&gt;&lt;/div&gt;&lt;/div&gt;" style="text;strokeColor=none;fillColor=none;align=left;verticalAlign=top;spacingLeft=4;spacingRight=4;overflow=hidden;rotatable=0;points=[[0,0.5],[1,0.5]];portConstraint=eastwest;whiteSpace=wrap;html=1;" parent="1oF_mmt88_rr4n1S5vzL-13" vertex="1">
          <mxGeometry y="165" width="190" height="26" as="geometry" />
        </mxCell>
        <mxCell id="1oF_mmt88_rr4n1S5vzL-22" style="rounded=0;orthogonalLoop=1;jettySize=auto;html=1;entryX=0.43;entryY=-0.004;entryDx=0;entryDy=0;entryPerimeter=0;exitX=0.794;exitY=1.033;exitDx=0;exitDy=0;exitPerimeter=0;endArrow=none;endFill=0;" parent="1" source="hBR_72GVZlkAtxKayIMy-16" target="1oF_mmt88_rr4n1S5vzL-13" edge="1">
          <mxGeometry relative="1" as="geometry" />
        </mxCell>
        <mxCell id="1oF_mmt88_rr4n1S5vzL-24" value="&lt;font style=&quot;font-size: 11px;&quot;&gt;1&lt;/font&gt;" style="text;html=1;align=center;verticalAlign=middle;resizable=0;points=[];autosize=1;strokeColor=none;fillColor=none;container=0;" parent="1" vertex="1">
          <mxGeometry x="600" y="310" width="30" height="30" as="geometry" />
        </mxCell>
        <mxCell id="1oF_mmt88_rr4n1S5vzL-25" value="&lt;font style=&quot;font-size: 11px;&quot;&gt;n&lt;/font&gt;" style="text;html=1;align=center;verticalAlign=middle;resizable=0;points=[];autosize=1;strokeColor=none;fillColor=none;container=0;" parent="1" vertex="1">
          <mxGeometry x="760" y="803" width="30" height="30" as="geometry" />
        </mxCell>
        <mxCell id="1oF_mmt88_rr4n1S5vzL-26" value="" style="rounded=0;orthogonalLoop=1;jettySize=auto;html=1;endArrow=none;endFill=0;" parent="1" source="1oF_mmt88_rr4n1S5vzL-13" target="1oF_mmt88_rr4n1S5vzL-1" edge="1">
          <mxGeometry x="0.0065" relative="1" as="geometry">
            <mxPoint as="offset" />
          </mxGeometry>
        </mxCell>
        <mxCell id="1oF_mmt88_rr4n1S5vzL-27" value="&lt;font style=&quot;font-size: 11px;&quot;&gt;1&lt;/font&gt;" style="text;html=1;align=center;verticalAlign=middle;resizable=0;points=[];autosize=1;strokeColor=none;fillColor=none;container=0;" parent="1" vertex="1">
          <mxGeometry x="565" y="930" width="30" height="30" as="geometry" />
        </mxCell>
        <mxCell id="1oF_mmt88_rr4n1S5vzL-28" value="&lt;font style=&quot;font-size: 11px;&quot;&gt;n&lt;/font&gt;" style="text;html=1;align=center;verticalAlign=middle;resizable=0;points=[];autosize=1;strokeColor=none;fillColor=none;container=0;" parent="1" vertex="1">
          <mxGeometry x="690" y="930" width="30" height="30" as="geometry" />
        </mxCell>
        <mxCell id="1oF_mmt88_rr4n1S5vzL-29" style="rounded=0;orthogonalLoop=1;jettySize=auto;html=1;entryX=0.504;entryY=1.113;entryDx=0;entryDy=0;entryPerimeter=0;endArrow=none;endFill=0;" parent="1" source="1oF_mmt88_rr4n1S5vzL-1" target="hBR_72GVZlkAtxKayIMy-49" edge="1">
          <mxGeometry relative="1" as="geometry" />
        </mxCell>
        <mxCell id="1oF_mmt88_rr4n1S5vzL-31" value="plays" style="edgeLabel;html=1;align=center;verticalAlign=middle;resizable=0;points=[];" parent="1oF_mmt88_rr4n1S5vzL-29" vertex="1" connectable="0">
          <mxGeometry x="0.168" y="-1" relative="1" as="geometry">
            <mxPoint as="offset" />
          </mxGeometry>
        </mxCell>
        <mxCell id="1oF_mmt88_rr4n1S5vzL-30" value="&lt;font style=&quot;font-size: 11px;&quot;&gt;1&lt;/font&gt;" style="text;html=1;align=center;verticalAlign=middle;resizable=0;points=[];autosize=1;strokeColor=none;fillColor=none;container=0;" parent="1" vertex="1">
          <mxGeometry x="440" y="647" width="30" height="30" as="geometry" />
        </mxCell>
        <mxCell id="1oF_mmt88_rr4n1S5vzL-32" value="&lt;font style=&quot;font-size: 11px;&quot;&gt;n&lt;/font&gt;" style="text;html=1;align=center;verticalAlign=middle;resizable=0;points=[];autosize=1;strokeColor=none;fillColor=none;container=0;" parent="1" vertex="1">
          <mxGeometry x="440" y="780" width="30" height="30" as="geometry" />
        </mxCell>
        <mxCell id="jk6WdciDaXZc7I5ve3Ry-7" value="&lt;font style=&quot;font-size: 11px;&quot;&gt;n&lt;/font&gt;" style="text;html=1;align=center;verticalAlign=middle;resizable=0;points=[];autosize=1;strokeColor=none;fillColor=none;container=0;" parent="1" vertex="1">
          <mxGeometry x="50" y="277" width="30" height="30" as="geometry" />
        </mxCell>
        <mxCell id="jk6WdciDaXZc7I5ve3Ry-8" value="&lt;font style=&quot;font-size: 11px;&quot;&gt;1&lt;/font&gt;" style="text;html=1;align=center;verticalAlign=middle;resizable=0;points=[];autosize=1;strokeColor=none;fillColor=none;container=0;" parent="1" vertex="1">
          <mxGeometry x="345" y="930" width="30" height="30" as="geometry" />
        </mxCell>
        <mxCell id="K8Ka-r9H6CZa7HrxZ-dk-1" value="user_id" style="edgeLabel;resizable=0;html=1;;align=left;verticalAlign=bottom;" parent="1" connectable="0" vertex="1">
          <mxGeometry x="475.00000000000017" y="802.9960000000001" as="geometry" />
        </mxCell>
        <mxCell id="K8Ka-r9H6CZa7HrxZ-dk-2" value="&lt;font style=&quot;font-size: 11px;&quot;&gt;n&lt;/font&gt;" style="text;html=1;align=center;verticalAlign=middle;resizable=0;points=[];autosize=1;strokeColor=none;fillColor=none;container=0;" parent="1" vertex="1">
          <mxGeometry x="440" y="780" width="30" height="30" as="geometry" />
        </mxCell>
        <mxCell id="K8Ka-r9H6CZa7HrxZ-dk-3" value="id" style="edgeLabel;resizable=0;html=1;;align=left;verticalAlign=bottom;" parent="1" connectable="0" vertex="1">
          <mxGeometry x="470.00000000000017" y="669.9960000000001" as="geometry" />
        </mxCell>
        <mxCell id="K8Ka-r9H6CZa7HrxZ-dk-4" value="&lt;h1 style=&quot;margin-top: 0px;&quot;&gt;Legende:&lt;/h1&gt;&lt;div&gt;&lt;i style=&quot;text-wrap: nowrap; text-align: center;&quot;&gt;- &amp;lt;&amp;lt;PK&amp;gt;&amp;gt; : Primary Key&lt;/i&gt;&lt;br&gt;&lt;/div&gt;&lt;div&gt;&lt;i style=&quot;text-wrap: nowrap; text-align: center;&quot;&gt;- &amp;lt;&amp;lt;FK&amp;gt;&amp;gt; : Foreign Key&lt;/i&gt;&lt;i style=&quot;text-wrap: nowrap; text-align: center;&quot;&gt;&lt;br&gt;&lt;/i&gt;&lt;/div&gt;&lt;div&gt;&lt;i style=&quot;text-wrap: nowrap; text-align: center;&quot;&gt;- integer :&amp;nbsp;&lt;/i&gt;&lt;span style=&quot;background-color: initial;&quot;&gt;ganzzahlige Daten (4Byte)&lt;/span&gt;&lt;/div&gt;&lt;div&gt;- varchar : Zeichenfolgen mit variabler GrÃ¶Ãe&lt;span style=&quot;background-color: initial;&quot;&gt;&lt;br&gt;&lt;/span&gt;&lt;/div&gt;&lt;div&gt;- datetime :&amp;nbsp;Definiert ein Datum&lt;/div&gt;&lt;div&gt;- bool : Akzeptiert True und False&lt;/div&gt;&lt;div&gt;- real :&amp;nbsp; numerische Gleitkommadaten (4Byte)&lt;/div&gt;&lt;div&gt;&lt;br&gt;&lt;/div&gt;" style="text;html=1;whiteSpace=wrap;overflow=hidden;rounded=0;strokeColor=default;" parent="1" vertex="1">
          <mxGeometry x="1040" y="490" width="270" height="170" as="geometry" />
        </mxCell>
        <mxCell id="K8Ka-r9H6CZa7HrxZ-dk-5" value="pool_id" style="edgeLabel;resizable=0;html=1;;align=left;verticalAlign=bottom;" parent="1" connectable="0" vertex="1">
          <mxGeometry x="420.0000000000002" y="190.00200000000018" as="geometry" />
        </mxCell>
        <mxCell id="K8Ka-r9H6CZa7HrxZ-dk-6" value="id" style="edgeLabel;resizable=0;html=1;;align=left;verticalAlign=bottom;" parent="1" connectable="0" vertex="1">
          <mxGeometry x="225.00000000000023" y="190.00200000000018" as="geometry" />
        </mxCell>
        <mxCell id="K8Ka-r9H6CZa7HrxZ-dk-8" value="task_id" style="edgeLabel;resizable=0;html=1;;align=left;verticalAlign=bottom;" parent="1" connectable="0" vertex="1">
          <mxGeometry x="840.0000000000002" y="190.00200000000018" as="geometry" />
        </mxCell>
        <mxCell id="K8Ka-r9H6CZa7HrxZ-dk-9" value="pool_id" style="edgeLabel;resizable=0;html=1;;align=left;verticalAlign=bottom;" parent="1" connectable="0" vertex="1">
          <mxGeometry x="330.00000000000017" y="835.9960000000001" as="geometry" />
        </mxCell>
        <mxCell id="K8Ka-r9H6CZa7HrxZ-dk-10" value="id" style="edgeLabel;resizable=0;html=1;;align=left;verticalAlign=bottom;" parent="1" connectable="0" vertex="1">
          <mxGeometry x="85.00000000000023" y="301.0020000000002" as="geometry" />
        </mxCell>
        <mxCell id="K8Ka-r9H6CZa7HrxZ-dk-14" value="game_id" style="edgeLabel;resizable=0;html=1;;align=left;verticalAlign=bottom;" parent="1" connectable="0" vertex="1">
          <mxGeometry x="670.0000000000002" y="919.9960000000001" as="geometry" />
        </mxCell>
        <mxCell id="K8Ka-r9H6CZa7HrxZ-dk-15" value="id" style="edgeLabel;resizable=0;html=1;;align=left;verticalAlign=bottom;" parent="1" connectable="0" vertex="1">
          <mxGeometry x="570.0000000000002" y="919.9960000000001" as="geometry" />
        </mxCell>
        <mxCell id="K8Ka-r9H6CZa7HrxZ-dk-16" value="task_id" style="edgeLabel;resizable=0;html=1;;align=left;verticalAlign=bottom;" parent="1" connectable="0" vertex="1">
          <mxGeometry x="805.0000000000002" y="827.0020000000002" as="geometry" />
        </mxCell>
        <mxCell id="K8Ka-r9H6CZa7HrxZ-dk-17" value="id" style="edgeLabel;resizable=0;html=1;;align=left;verticalAlign=bottom;" parent="1" connectable="0" vertex="1">
          <mxGeometry x="670.0000000000002" y="190.00200000000018" as="geometry" />
        </mxCell>
        <mxCell id="K8Ka-r9H6CZa7HrxZ-dk-18" value="id" style="edgeLabel;resizable=0;html=1;;align=left;verticalAlign=bottom;" parent="1" connectable="0" vertex="1">
          <mxGeometry x="245.00000000000023" y="210.00200000000018" as="geometry">
            <mxPoint x="397" y="118" as="offset" />
          </mxGeometry>
        </mxCell>
      </root>
    </mxGraphModel>
  </diagram>
</mxfile>
